<svg xmlns="http://www.w3.org/2000/svg" viewBox="150 139 28 30" width="28" height="28">
  <defs><linearGradient id="slvg" x1="0" y1="0" x2="1" y2="1"><stop offset="0%" stop-color="#e65c00"/><stop offset="100%" stop-color="#00897b"/></linearGradient></defs>
  <path d="M157,160c0-0.266-0.046-0.519-0.11-0.764l4.715-2.144C162.31,158.233,163.562,159,165,159c0.466,0,0.905-0.095,1.32-0.241    l1.913,3.827c-0.744,0.546-1.233,1.42-1.233,2.414c0,1.657,1.343,3,3,3s3-1.343,3-3s-1.343-3-3-3    c-0.305,0-0.593,0.059-0.869,0.143l-1.909-3.818c0.822-0.55,1.419-1.4,1.657-2.391l3.149,0.35c0.14,0.969,0.965,1.716,1.972,1.716    c1.104,0,2-0.896,2-2s-0.896-2-2-2c-0.854,0-1.577,0.537-1.864,1.29l-3.142-0.349c-0.02-1.31-0.67-2.461-1.659-3.176l2.693-4.939    c0.307,0.105,0.63,0.175,0.972,0.175c1.657,0,3-1.343,3-3s-1.343-3-3-3s-3,1.343-3,3c0,0.955,0.455,1.796,1.151,2.346    l-2.693,4.938C166.005,151.105,165.516,151,165,151c-0.924,0-1.764,0.326-2.44,0.852l-3.842-3.842    c0.175-0.297,0.282-0.64,0.282-1.01c0-1.104-0.896-2-2-2s-2,0.896-2,2s0.896,2,2,2c0.37,0,0.713-0.107,1.011-0.283l3.842,3.842    C161.326,153.236,161,154.076,161,155c0,0.414,0.081,0.804,0.197,1.179l-4.712,2.142C155.946,157.524,155.034,157,154,157    c-1.657,0-3,1.343-3,3s1.343,3,3,3S157,161.657,157,160z M170,163c1.103,0,2,0.897,2,2s-0.897,2-2,2s-2-0.897-2-2    S168.897,163,170,163z M169,144c0-1.103,0.897-2,2-2s2,0.897,2,2s-0.897,2-2,2S169,145.103,169,144z M174,155c0.552,0,1,0.449,1,1    s-0.448,1-1,1s-1-0.449-1-1S173.448,155,174,155z M157,148c-0.552,0-1-0.449-1-1s0.448-1,1-1s1,0.449,1,1S157.552,148,157,148z     M162,155c0-1.657,1.343-3,3-3s3,1.343,3,3s-1.343,3-3,3S162,156.657,162,155z M152,160c0-1.103,0.897-2,2-2s2,0.897,2,2    s-0.897,2-2,2S152,161.103,152,160z" fill="url(#slvg)"/>
</svg>